<svg width="320" height="248" viewBox="0 0 320 248" fill="none" xmlns="http://www.w3.org/2000/svg">
<path fill-rule="evenodd" clip-rule="evenodd" d="M0 0L23.0387 41.9692C46.0773 80.1231 92.1547 164.062 139.768 190.769C185.845 221.292 231.923 190.769 278 164.062C324.077 137.354 370.155 110.646 417.768 110.646C463.845 110.646 509.923 137.354 532.961 152.615L556 164.062V248H532.961C509.923 248 463.845 248 417.768 248C370.155 248 324.077 248 278 248C231.923 248 185.845 248 139.768 248C92.1547 248 46.0773 248 23.0387 248H0V0Z" fill="#010101"/>
</svg>
