<svg width="24" height="23" viewBox="0 0 24 23" fill="none" xmlns="http://www.w3.org/2000/svg">
<path d="M5.37214 23H0.396429V7.64408H5.37214V23ZM2.88161 5.54939C1.29054 5.54939 0 4.28641 0 2.7616C1.13882e-08 2.02918 0.303597 1.32676 0.844003 0.808854C1.38441 0.290954 2.11736 0 2.88161 0C3.64586 0 4.3788 0.290954 4.91921 0.808854C5.45962 1.32676 5.76321 2.02918 5.76321 2.7616C5.76321 4.28641 4.47214 5.54939 2.88161 5.54939ZM23.9946 23H19.0296V15.5248C19.0296 13.7433 18.9921 11.4587 16.4427 11.4587C13.8557 11.4587 13.4593 13.3942 13.4593 15.3965V23H8.48893V7.64408H13.2611V9.73877H13.3307C13.995 8.53227 15.6177 7.25902 18.0386 7.25902C23.0743 7.25902 24 10.437 24 14.5648V23H23.9946Z" fill="white"/>
</svg>
