<svg width="25" height="21" viewBox="0 0 25 21" fill="none" xmlns="http://www.w3.org/2000/svg">
<path d="M22.4302 5.06026C22.446 5.28233 22.446 5.50445 22.446 5.72652C22.446 12.5 17.2906 20.3045 7.86802 20.3045C4.96509 20.3045 2.26841 19.4638 -1.90735e-06 18.0044C0.412449 18.052 0.808982 18.0679 1.2373 18.0679C3.63257 18.0679 5.83755 17.2589 7.59834 15.8788C5.3458 15.8312 3.4581 14.356 2.80771 12.3255C3.125 12.3731 3.44223 12.4048 3.77539 12.4048C4.2354 12.4048 4.69546 12.3413 5.12373 12.2303C2.77602 11.7544 1.01518 9.69224 1.01518 7.20176V7.13834C1.69726 7.51905 2.49048 7.75699 3.33115 7.78868C1.95107 6.86861 1.04692 5.2982 1.04692 3.52154C1.04692 2.56978 1.30068 1.69732 1.74487 0.935895C4.26709 4.04503 8.05835 6.07545 12.3096 6.29756C12.2303 5.91685 12.1827 5.52032 12.1827 5.12374C12.1827 2.3001 14.4669 6.13928e-06 17.3064 6.13928e-06C18.7816 6.13928e-06 20.1141 0.618659 21.05 1.61802C22.208 1.39595 23.3184 0.967633 24.302 0.380719C23.9212 1.57047 23.1122 2.56983 22.0494 3.2043C23.0805 3.09332 24.0799 2.80772 24.9999 2.41119C24.302 3.42637 23.4295 4.33052 22.4302 5.06026Z" fill="white"/>
</svg>
